<svg id="Layer_3" enable-background="new 0 0 64 64" height="512" viewBox="0 0 64 64" width="512" xmlns="http://www.w3.org/2000/svg"><g><path d="m3 40v-4c0-1.105.895-2 2-2h4v6z" fill="#f2c351"/><path d="m21 34v-2.5c0-.828.672-1.5 1.5-1.5.828 0 1.5.672 1.5 1.5v2.5" fill="#7f786b"/><path d="m18 34v-2.5c0-.828.672-1.5 1.5-1.5.828 0 1.5.672 1.5 1.5v2.5" fill="#625d51"/><path d="m16 38h10v5h-10z" fill="#f2c351"/><path d="m9 38h15l8 3h4v-2c0-1.105-.895-2-2-2h-2l-8-3h-15z" fill="#f7d881"/><path d="m44 34h-12v3h2c1.105 0 2 .895 2 2v2l3-3h5z" fill="#625d51"/><path d="m44 34h-12v-8c0-2.209 1.791-4 4-4h7c.552 0 1 .448 1 1z" fill="#f2c351"/><path d="m40 31v-6h-7.859c-.083.321-.141.653-.141 1v5z" fill="#c7e2fc"/><path d="m34 43 5-5h16l5 5h-4l-2-2h-14l-2 2z" fill="#f2c351"/><path d="m62 38h-18v-8h16c1.105 0 2 .895 2 2z" fill="#f7d881"/><g fill="#534f44"><circle cx="6" cy="43" r="4"/><circle cx="43" cy="45" r="4"/><circle cx="51" cy="45" r="4"/></g><g><path d="m5.999 44.998c-1.104 0-2-.896-2-1.999 0-1.104.896-2 2-2 1.103 0 1.999.896 1.999 2 0 1.103-.896 1.999-1.999 1.999z" fill="#cbc3b6"/></g><g><path d="m43 46.998c-1.104 0-2-.896-2-1.999 0-1.104.896-2 2-2 1.103 0 1.999.896 1.999 2 0 1.103-.896 1.999-1.999 1.999zm-.001-2c.001 0 .001.001.001.002l.999-.001z" fill="#cbc3b6"/></g><g><path d="m51 46.998c-1.104 0-2-.896-2-1.999 0-1.104.896-2 2-2 1.103 0 1.999.896 1.999 2 0 1.103-.896 1.999-1.999 1.999zm-.001-2c.001 0 .001.001.001.002l.999-.001z" fill="#cbc3b6"/></g><path d="m15 48-1.293-1.293c-.453-.453-.707-1.067-.707-1.707 0-.64.254-1.254.707-1.707l1.293-1.293h12l1.293 1.293c.453.453.707 1.067.707 1.707 0 .64-.254 1.254-.707 1.707l-1.293 1.293z" fill="#7f786b"/><g><path d="m21.999 43.999h3.999v1.999h-3.999z" fill="#9e968d"/></g><path d="m8 31h-4v-2c0-1.105.895-2 2-2 1.105 0 2 .895 2 2z" fill="#f2c351"/><g><path d="m4.999 31h1.999v2.999h-1.999z" fill="#625d51"/></g><g><path d="m45.999 32h1.999v3.999h-1.999z" fill="#7f786b"/></g><g><path d="m48.999 32h1.999v3.999h-1.999z" fill="#7f786b"/></g><g><path d="m51.999 32h1.999v3.999h-1.999z" fill="#7f786b"/></g><path d="m50 30v-4h5v4" fill="#7f786b"/><path d="m51 26v-7l3-3 2 2-2 2v6" fill="#d5cec2"/><path d="m37 22v-3h5v3" fill="#625d51"/><path d="m37 19 1-4h3l1 4" fill="#c66b60"/><path d="m40.332 15.158c0-.054-.014-.104-.016-.158h-2.316l-1 4h1.689c1.009-.972 1.643-2.33 1.643-3.842z" fill="#e47c6e"/><path d="m32 26v5h3.978c1.298-1.271 2.106-3.04 2.106-5 0-.34-.033-.672-.079-1h-5.863c-.084.321-.142.653-.142 1z" fill="#ebf7fe"/><g><path d="m59.999 29h-4v-3c0-.553-.447-1-1-1v-4.586l1.708-1.707c.39-.391.39-1.024 0-1.415l-2-2c-.39-.39-1.023-.391-1.415 0l-3 3c-.188.187-.292.442-.292.708v6c-.553 0-1 .447-1 1v3h-4.001v-6c0-1.103-.896-2-2-2v-2c0-.084-.028-.16-.048-.238l.019-.005-1-4c-.112-.445-.512-.757-.971-.757h-2.999c-.459 0-.859.312-.971.757l-1 4 .019.005c-.02.078-.048.153-.048.238v2c-2.758 0-5 2.243-5 5v7.995c0 .002-.001.003-.001.005v1.557l-6-2.25v-1.807c0-1.379-1.121-2.5-2.501-2.5-.565 0-1.08.195-1.499.513-.419-.318-.935-.513-1.501-.513-1.378 0-2.498 1.121-2.498 2.5v1.5h-8-.001-2v-1h1c.553 0 1-.447 1-1v-2c0-1.654-1.346-3-3.001-3-1.653 0-2.998 1.345-2.998 3v2c0 .553.447 1 1 1h1v1c-1.654 0-3 1.346-3 3v3.999h.026c-.635.837-1.026 1.869-1.026 3 0 2.757 2.242 4.999 5 4.999 2.757 0 4.999-2.242 4.999-4.999 0-1.131-.391-2.163-1.026-3.001h.026v-1h5.001v2.001c-.266 0-.521.104-.708.292l-1.293 1.293c-.645.645-.999 1.503-.999 2.416 0 .911.354 1.769 1 2.414l1.293 1.292c.188.188.441.292.706.292l12 .002c.266 0 .521-.105.708-.294l1.292-1.292c.646-.646 1-1.504 1-2.415 0-.898-.364-1.778-1-2.414l-1.292-1.293c-.188-.188-.442-.293-.708-.293v-.808l4.649 1.744c.112.042.231.063.351.063h1.586l-.293.293c-.285.286-.371.717-.217 1.09.155.374.52.617.925.617h4c.037 0 .07-.017.107-.021-.069.33-.107.672-.107 1.022 0 2.757 2.242 4.999 5 4.999 1.641 0 3.088-.805 4-2.031.912 1.225 2.358 2.031 4 2.031 2.757 0 4.999-2.242 4.999-4.999 0-.35-.038-.692-.107-1.022.036.004.07.021.107.021h4c.405 0 .77-.243.925-.617.154-.373.068-.804-.217-1.09l-3.293-3.293h4.585c.553 0 1-.447 1-1v-5.998c0-1.655-1.346-3-3-3zm-54.999 0c0-.552.448-1 1-1 .551 0 .999.448.999 1v1h-1.999zm47-9.586 1.999-2 .586.586-1.293 1.292c-.188.187-.292.442-.292.708v5h-1zm-1 7.586h2.999v2h-2.999zm-10.781-11 .5 2h-2.439l.5-2zm-2.219 4h2.999v1h-2.999zm-2 3h6.999v9.999h-9.999v-1h6.999c.553 0 1-.447 1-1v-6c0-.553-.447-1-1-1h-6.219c.55-.609 1.337-.999 2.22-.999zm-3 6.999v-4h5.999v4zm-10.5 1.001c.275 0 .499.224.499.5v1.5h-.999v-1.5c0-.276.224-.5.5-.5zm-3.5.5c0-.276.224-.5.5-.5.275 0 .499.224.499.5v1.5h-.999zm-14 3.499h2.999v3.423c-.613-.269-1.288-.423-1.999-.423-.712 0-1.387.154-2 .423v-2.423c0-.552.448-1 1-1zm1 10.999c-1.654 0-3-1.346-3-2.999 0-1.654 1.346-3 3-3 1.653 0 2.999 1.346 2.999 3 0 1.653-1.346 2.999-2.999 2.999zm21.584-1.999c.269.268.415.623.415 1.001 0 .371-.15.735-.415 1l-.999.999h-11.172l-.999-1c-.268-.267-.414-.622-.414-1s.146-.733.414-1l1-1h11.171zm-2.584-3h-8.001v-2.001h6.819l1.182.443zm-.649-3.937c-.112-.042-.231-.063-.351-.063h-14.001v-2h13.819l7.83 2.936.003-.007c.109.041.225.07.348.07h2c.552 0 1 .449 1 1v1h-2.818zm9.648-1.063h-1v-1h10.001v2h-4c-.266 0-.521.104-.708.292l-1.331 1.331c-.188-1.475-1.437-2.623-2.962-2.623zm9.001 11.999c-1.654 0-3-1.346-3-2.999 0-1.654 1.346-3 3-3 1.653 0 2.999 1.346 2.999 3 0 1.653-1.346 2.999-2.999 2.999zm3.973-6h.052c-.008.011-.018.021-.026.032-.008-.011-.017-.021-.026-.032zm4.027 6c-1.654 0-3-1.346-3-2.999 0-1.654 1.346-3 3-3 1.653 0 2.999 1.346 2.999 3 0 1.653-1.346 2.999-2.999 2.999zm5.414-6-1.707-1.707c-.188-.188-.442-.292-.708-.292h-13.999c-.266 0-.521.104-.708.292l-1.707 1.707h-1.171l3-2.999h15.171l3 2.999zm4.585-5h-15.999v-5.998h14.999c.552 0 1 .448 1 1z"/><path d="m6 40.999c-1.104 0-2 .896-2 2 0 1.103.896 1.999 2 1.999 1.103 0 1.999-.896 1.999-1.999s-.896-2-1.999-2zm0 2.001c0-.001 0-.002-.001-.002l1 .001z"/><path d="m43 42.999c-1.104 0-2 .896-2 2 0 1.103.896 1.999 2 1.999 1.103 0 1.999-.896 1.999-1.999s-.896-2-1.999-2zm0 2.001c0-.001 0-.002-.001-.002l1 .001z"/><path d="m51 42.999c-1.104 0-2 .896-2 2 0 1.103.896 1.999 2 1.999 1.103 0 1.999-.896 1.999-1.999s-.896-2-1.999-2zm0 2.001c0-.001 0-.002-.001-.002l1 .001z"/><path d="m22 43.999h3.999v1.999h-3.999z"/><path d="m46 32h1.999v3.999h-1.999z"/><path d="m49 32h1.999v3.999h-1.999z"/><path d="m52 32h1.999v3.999h-1.999z"/></g></g></svg>