<?xml version="1.0" encoding="iso-8859-1"?>
<!-- Generator: Adobe Illustrator 17.1.0, SVG Export Plug-In . SVG Version: 6.00 Build 0)  -->
<!DOCTYPE svg PUBLIC "-//W3C//DTD SVG 1.1//EN" "http://www.w3.org/Graphics/SVG/1.1/DTD/svg11.dtd">
<svg version="1.1" id="Capa_1" xmlns="http://www.w3.org/2000/svg" xmlns:xlink="http://www.w3.org/1999/xlink" x="0px" y="0px"
	 viewBox="0 0 511 511" style="enable-background:new 0 0 511 511;" xml:space="preserve">
<g>
	<path d="M119.5,304.001c-8.547,0-15.5,6.953-15.5,15.5s6.953,15.5,15.5,15.5s15.5-6.953,15.5-15.5S128.047,304.001,119.5,304.001z
		 M119.5,320.001c-0.276,0-0.5-0.225-0.5-0.5s0.224-0.5,0.5-0.5s0.5,0.225,0.5,0.5S119.776,320.001,119.5,320.001z"/>
	<path d="M199.5,304.001c-8.547,0-15.5,6.953-15.5,15.5s6.953,15.5,15.5,15.5s15.5-6.953,15.5-15.5S208.047,304.001,199.5,304.001z
		 M199.5,320.001c-0.276,0-0.5-0.225-0.5-0.5s0.224-0.5,0.5-0.5s0.5,0.225,0.5,0.5S199.776,320.001,199.5,320.001z"/>
	<path d="M439.5,304.001c-8.547,0-15.5,6.953-15.5,15.5s6.953,15.5,15.5,15.5s15.5-6.953,15.5-15.5S448.047,304.001,439.5,304.001z
		 M439.5,320.001c-0.276,0-0.5-0.225-0.5-0.5s0.224-0.5,0.5-0.5s0.5,0.225,0.5,0.5S439.776,320.001,439.5,320.001z"/>
	<path d="M508.803,346.198L503,340.395v-20.894c0-1.623-0.526-3.202-1.5-4.5l-48-64c-2.485-3.313-7.186-3.985-10.5-1.5
		c-3.313,2.485-3.985,7.187-1.5,10.5l10.196,13.594c-3.576-0.951-7.317-1.486-11.168-1.568L324.619,243.05
		c-1.858-0.464-3.735-0.808-5.619-1.044v-10.504c0-4.142-3.358-7.5-7.5-7.5s-7.5,3.358-7.5,7.5v11.016
		c-1.996,0.391-3.975,0.903-5.922,1.553L231,266.429v-6.85c5.258-3.195,9.198-8.414,10.67-14.793l19.796-85.784H271.5
		c4.142,0,7.5-3.358,7.5-7.5s-3.358-7.5-7.5-7.5h-15.849c-0.105-0.002-0.209-0.002-0.315,0H175.5c-12.958,0-23.5,10.542-23.5,23.5
		v24.5h-24.5c-8.547,0-15.5,6.953-15.5,15.5v16.5h-9v-49.873c0-6.278-2.445-12.179-6.883-16.617l-11.313-11.314
		c-2.929-2.929-7.678-2.929-10.606,0c-2.929,2.929-2.929,7.678,0,10.607l11.314,11.314c1.605,1.605,2.489,3.74,2.489,6.01v49.873
		H23.5c-8.547,0-15.5,6.953-15.5,15.5v32.5H7.5c-4.142,0-7.5,3.358-7.5,7.5v11.165c0,11.1,7.567,20.533,18.402,22.94l54.004,12.001
		c3.008,23.316,22.973,41.394,47.094,41.394c16.782,0,31.548-8.756,40-21.932c8.452,13.176,23.218,21.932,40,21.932
		c26.191,0,47.5-21.309,47.5-47.5c0-3.509-0.394-6.927-1.12-10.221l56.941-18.98c0.39-0.13,0.786-0.232,1.179-0.347v22.048h-8.5
		c-12.958,0-23.5,10.542-23.5,23.5s10.542,23.5,23.5,23.5h32c4.142,0,7.5-3.358,7.5-7.5s-3.358-7.5-7.5-7.5H319v-24.5v-30.32
		c0.663,0.123,1.324,0.257,1.981,0.421l72.497,18.125c-0.964,3.767-1.479,7.711-1.479,11.774c0,26.191,21.309,47.5,47.5,47.5
		c25.813,0,46.868-20.701,47.471-46.372l1.029,1.372v21.5c0,1.989,0.79,3.896,2.197,5.303l8,8c1.464,1.464,3.384,2.197,5.303,2.197
		s3.839-0.732,5.303-2.197C511.732,353.875,511.732,349.127,508.803,346.198z M167,167.501c0-4.687,3.813-8.5,8.5-8.5h70.572
		l-19.019,82.411c-0.895,3.879-4.301,6.589-8.282,6.589H207v-64.5c0-4.142-3.358-7.5-7.5-7.5s-7.5,3.358-7.5,7.5v64.5h-25V167.501z
		 M127,207.501c0-0.275,0.224-0.5,0.5-0.5H152v41h-24.5c-0.276,0-0.5-0.225-0.5-0.5v-16V207.501z M23,239.501
		c0-0.275,0.224-0.5,0.5-0.5H112v8.5c0,8.547,6.953,15.5,15.5,15.5h32H216v8.428l-1.717,0.572H23V239.501z M164.906,287.001
		c-2.007,2.135-3.817,4.455-5.406,6.932c-1.589-2.477-3.399-4.797-5.406-6.932H164.906z M15,290.666v-3.665h69.906
		c-6.002,6.385-10.263,14.42-12.013,23.349l-51.237-11.386C17.737,298.093,15,294.681,15,290.666z M119.5,352.001
		c-17.92,0-32.5-14.579-32.5-32.5s14.58-32.5,32.5-32.5s32.5,14.579,32.5,32.5S137.42,352.001,119.5,352.001z M199.5,352.001
		c-17.92,0-32.5-14.579-32.5-32.5s14.58-32.5,32.5-32.5s32.5,14.579,32.5,32.5S217.42,352.001,199.5,352.001z M304,344.001h-8.5
		c-4.687,0-8.5-3.813-8.5-8.5s3.813-8.5,8.5-8.5h8.5V344.001z M324.619,275.05c-8.779-2.194-17.958-1.842-26.541,1.02
		l-57.722,19.241c-2.739-4.608-6.233-8.714-10.313-12.149c0.131-0.233,0.252-0.473,0.358-0.722l72.42-24.14
		c5.875-1.959,12.154-2.199,18.16-0.698l91.488,22.872c-5.114,3.553-9.495,8.083-12.879,13.318L324.619,275.05z M439.5,352.001
		c-17.92,0-32.5-14.579-32.5-32.5c0-4.901,1.097-9.549,3.048-13.721c0.043-0.086,0.08-0.176,0.12-0.265
		c5.237-10.939,16.416-18.514,29.332-18.514c17.92,0,32.5,14.579,32.5,32.5S457.42,352.001,439.5,352.001z"/>
</g>
<g>
</g>
<g>
</g>
<g>
</g>
<g>
</g>
<g>
</g>
<g>
</g>
<g>
</g>
<g>
</g>
<g>
</g>
<g>
</g>
<g>
</g>
<g>
</g>
<g>
</g>
<g>
</g>
<g>
</g>
</svg>
